<?xml version="1.0" encoding="iso-8859-1"?>
<svg id="Capa_1" enable-background="new 0 0 512 512" height="512" viewBox="0 0 512 512" width="512" xmlns="http://www.w3.org/2000/svg"><g><path d="m27.322 133.378c5.858 5.859 15.355 5.857 21.213 0 5.857-5.858 5.857-15.355 0-21.213l-14.141-14.142c-5.849-5.849-5.849-15.365 0-21.214 2.833-2.833 6.6-4.394 10.607-4.394 4.006 0 7.773 1.561 10.606 4.394l82.01 82.009c-7.966 16.724-5.045 37.381 8.782 51.209l35.356 35.356 63.64-63.639-35.356-35.356c-13.826-13.828-34.484-16.749-51.209-8.782l-82.01-82.01c-8.5-8.5-19.8-13.181-31.82-13.181s-23.321 4.681-31.82 13.181c-17.544 17.546-17.544 46.094 0 63.64z"/><path d="m484.678 378.6c-5.857-5.857-15.355-5.857-21.213 0s-5.858 15.355 0 21.213l14.142 14.142c5.849 5.849 5.849 15.365 0 21.214-5.848 5.848-15.365 5.848-21.213 0l-82.01-82.009c7.967-16.724 5.045-37.381-8.782-51.209l-14.142-14.142-63.64 63.64 14.142 14.142c8.772 8.773 20.296 13.159 31.819 13.159 6.64 0 13.276-1.465 19.39-4.377l82.01 82.009c8.772 8.772 20.296 13.159 31.819 13.159s23.047-4.387 31.819-13.159c17.546-17.546 17.546-46.094 0-63.64z"/><path d="m512 66.203c0-12.02-4.681-23.32-13.181-31.819-17.545-17.545-46.094-17.545-63.639 0l-271.506 271.505c-13.828 13.827-16.749 34.484-8.782 51.208l-99.284 99.284c-2.833 2.833-6.6 4.394-10.607 4.394s-7.773-1.561-10.606-4.394-4.395-6.599-4.395-10.606 1.56-7.773 4.394-10.606l14.142-14.143c5.857-5.858 5.857-15.355 0-21.213-5.858-5.859-15.355-5.857-21.213 0l-14.143 14.143c-8.499 8.499-13.18 19.799-13.18 31.819s4.681 23.32 13.18 31.819c8.5 8.5 19.8 13.181 31.82 13.181s23.321-4.681 31.82-13.181l99.265-99.264c5.983 2.864 12.579 4.38 19.409 4.38 12.02 0 23.32-4.681 31.819-13.181l271.506-271.506c8.499-8.499 13.181-19.8 13.181-31.82z"/></g></svg>
