<?xml version="1.0" encoding="iso-8859-1"?>
<svg id="Capa_1" enable-background="new 0 0 512 512" height="512" viewBox="0 0 512 512" width="512" xmlns="http://www.w3.org/2000/svg"><g><path d="m241 452h210c8.271 0 15 6.729 15 15s-6.729 15-15 15h-105v30h105c24.813 0 45-20.187 45-45s-20.187-45-45-45h-98.069c67.516-39.052 113.069-112.283 113.069-196 0-124.617-100.935-226-225-226s-225 101.383-225 226 100.935 226 225 226zm-75-61c0-137.351 105.001-253.608 240.588-268.392 5.672 9.144 10.615 18.789 14.748 28.853-125.532 7.605-225.336 112.128-225.336 239.539 0 8.673.471 17.445 1.355 26.047-10.646-2.456-20.958-5.798-30.865-9.93-.316-5.364-.49-10.757-.49-16.117zm109.727-135.529c42.775 29.826 92.705 45.529 145.273 45.529.049 0 .099-.002.149-.002-4.276 10.339-9.407 20.233-15.307 29.594-53.455-2.786-104.18-20.23-147.889-50.815 5.349-8.532 11.293-16.652 17.774-24.306zm155.131 15.312c-3.287.142-6.58.217-9.858.217-44.664 0-87.17-12.851-123.957-37.306 8.008-7.082 16.55-13.571 25.572-19.381 29.803 17.484 63.614 26.687 98.385 26.687 4.824 0 9.655-.189 14.468-.544-.754 10.351-2.311 20.48-4.61 30.327zm-9.858-59.783c-22.875 0-45.249-4.728-65.924-13.773 23.414-9.815 48.965-15.509 75.746-16.161 2.231 9.523 3.77 19.31 4.558 29.307-4.777.414-9.582.627-14.38.627zm-192.897 210.561c-1.377-9.933-2.103-20.314-2.103-30.561 0-8.098.477-16.085 1.374-23.947 28.244 17.132 58.291 30.296 89.826 39.358-23.421 10.031-49.177 15.589-76.2 15.589-4.334 0-8.632-.158-12.897-.439zm127.169-36.844c-43.596-8.428-84.499-24.974-121.802-49.26 2.74-9.979 6.199-19.663 10.318-28.994 42.097 28.743 89.932 46.568 140.426 52.408-8.768 9.54-18.463 18.203-28.942 25.846zm30.792-289.549c-142.608 23.981-250.064 148.219-250.064 295.832 0 .032.001.064.001.096-10.46-6.744-20.237-14.467-29.209-23.034 9.867-143.39 112.443-264.622 252.174-298.018 9.8 7.508 18.875 15.922 27.098 25.124zm-127.057-17.717c-1.997-10.316-3.007-20.836-3.007-31.451 0-5.072.232-10.283.664-15.366 23.964 1.924 46.717 8.225 67.473 18.099-22.854 7.459-44.638 17.121-65.13 28.718zm-26.948 16.864c-8.848 6.1-17.403 12.58-25.64 19.418-6.913-21.811-10.419-44.509-10.419-67.733 0-3.588.092-7.193.262-10.787 9.844-2.332 19.972-3.913 30.323-4.677-.378 5.157-.585 10.377-.585 15.464 0 16.384 2.036 32.587 6.059 48.315zm-49.764 41.363c-7.874 7.837-15.38 16.03-22.496 24.551-13.826-31.464-21.684-64.832-23.424-99.559 9.367-6.01 19.277-11.234 29.636-15.588-.002.305-.011.612-.011.918 0 30.927 5.489 61.04 16.295 89.678zm-74.195-52.965c4.193 36.494 14.648 71.497 31.23 104.463-6.513 9.471-12.571 19.268-18.167 29.344-18.607-32.518-31.605-67.516-38.781-104.399 7.588-10.647 16.213-20.495 25.718-29.408zm-47.197 68.161c10.007 34.414 24.917 67.079 44.551 97.553-12.045 27.852-20.659 57.438-25.344 88.186-21.506-31.503-34.11-69.604-34.11-110.613 0-26.601 5.309-51.977 14.903-75.126z"/></g></svg>
